<svg width="500" height="500" viewBox="0 0 500 500" fill="none" xmlns="http://www.w3.org/2000/svg">
<g clip-path="url(#clip0_112_6)">
<g filter="url(#filter0_f_112_6)">
<path d="M249.94 32H23V250.688H249.94V32Z" fill="url(#paint0_linear_112_6)"/>
</g>
<g filter="url(#filter1_f_112_6)">
<path d="M249.94 241.06H23V468H249.94V241.06Z" fill="url(#paint1_linear_112_6)"/>
</g>
<g filter="url(#filter2_f_112_6)">
<path d="M476.881 241.06H249.94V468H476.881V241.06Z" fill="url(#paint2_linear_112_6)"/>
</g>
<g filter="url(#filter3_f_112_6)">
<path d="M476.881 32H249.94V258.94H476.881V32Z" fill="url(#paint3_linear_112_6)"/>
</g>
<g filter="url(#filter4_d_112_6)">
<path d="M444.249 44.3788H55.6306C49.0032 44.3788 43.6306 49.7514 43.6306 56.3788V444.997C43.6306 451.625 49.0032 456.997 55.6306 456.997H444.249C450.876 456.997 456.249 451.625 456.249 444.997V56.3788C456.249 49.7514 450.876 44.3788 444.249 44.3788Z" fill="black"/>
<path d="M55.6306 44.8788H444.249C450.6 44.8788 455.749 50.0275 455.749 56.3788V444.997C455.749 451.349 450.6 456.497 444.249 456.497H55.6306C49.2794 456.497 44.1306 451.349 44.1306 444.997V56.3788C44.1306 50.0275 49.2793 44.8788 55.6306 44.8788Z" stroke="white" stroke-opacity="0.3"/>
</g>
<path d="M444.249 44.3788H55.6306C49.0032 44.3788 43.6306 49.7514 43.6306 56.3788V444.997C43.6306 451.625 49.0032 456.997 55.6306 456.997H444.249C450.876 456.997 456.249 451.625 456.249 444.997V56.3788C456.249 49.7514 450.876 44.3788 444.249 44.3788Z" fill="url(#paint4_linear_112_6)" stroke="white" stroke-opacity="0.3"/>
<path d="M420.49 250.035C420.49 227.424 392.193 205.996 348.808 192.707C358.82 148.459 354.37 113.256 334.764 101.985C330.244 99.341 324.96 98.0887 319.19 98.0887V113.603C322.388 113.603 324.96 114.23 327.116 115.412C336.571 120.839 340.673 141.502 337.475 168.079C336.71 174.619 335.459 181.506 333.929 188.533C320.302 185.194 305.423 182.619 289.78 180.95C280.394 168.079 270.66 156.391 260.857 146.163C283.522 125.083 304.798 113.534 319.259 113.534V98.0192C300.139 98.0192 275.11 111.655 249.802 135.31C224.494 111.795 199.465 98.2975 180.345 98.2975V113.812C194.737 113.812 216.082 125.292 238.747 146.233C229.014 156.46 219.28 168.079 210.033 180.95C194.32 182.619 179.441 185.194 165.814 188.603C164.215 181.645 163.033 174.897 162.198 168.427C158.931 141.85 162.963 121.187 172.349 115.691C174.435 114.438 177.147 113.882 180.345 113.882V98.367C174.505 98.367 169.221 99.6193 164.632 102.263C145.095 113.534 140.715 148.668 150.796 192.777C107.55 206.135 79.3921 227.494 79.3921 250.035C79.3921 272.646 107.689 294.075 151.074 307.363C141.062 351.611 145.512 386.815 165.118 398.085C169.638 400.729 174.922 401.981 180.762 401.981C199.882 401.981 224.911 388.345 250.219 364.691C275.527 388.206 300.556 401.703 319.676 401.703C325.517 401.703 330.801 400.451 335.389 397.807C354.926 386.536 359.307 351.402 349.225 307.293C392.332 294.005 420.49 272.577 420.49 250.035ZM329.966 203.63C327.394 212.605 324.196 221.858 320.58 231.111C317.73 225.546 314.74 219.98 311.472 214.414C308.274 208.848 304.867 203.422 301.46 198.134C311.333 199.595 320.858 201.404 329.966 203.63ZM298.123 277.725C292.7 287.117 287.138 296.023 281.367 304.302C271.008 305.206 260.509 305.693 249.941 305.693C239.443 305.693 228.944 305.206 218.654 304.371C212.883 296.092 207.252 287.256 201.829 277.934C196.545 268.82 191.747 259.567 187.367 250.244C191.678 240.921 196.545 231.598 201.759 222.484C207.182 213.092 212.744 204.187 218.515 195.908C228.874 195.003 239.373 194.516 249.941 194.516C260.44 194.516 270.938 195.003 281.228 195.838C286.999 204.117 292.63 212.953 298.053 222.276C303.338 231.39 308.135 240.643 312.515 249.966C308.135 259.288 303.338 268.611 298.123 277.725ZM320.58 268.681C324.335 278.003 327.533 287.326 330.175 296.37C321.067 298.597 311.472 300.475 301.53 301.936C304.937 296.579 308.343 291.083 311.542 285.448C314.74 279.882 317.73 274.246 320.58 268.681ZM250.08 342.914C243.614 336.235 237.148 328.791 230.752 320.651C237.009 320.929 243.406 321.138 249.872 321.138C256.407 321.138 262.873 320.999 269.2 320.651C262.943 328.791 256.477 336.235 250.08 342.914ZM198.352 301.936C188.479 300.475 178.954 298.666 169.846 296.44C172.419 287.465 175.617 278.212 179.232 268.959C182.083 274.525 185.073 280.09 188.34 285.656C191.608 291.222 194.945 296.649 198.352 301.936ZM249.732 157.156C256.198 163.835 262.664 171.279 269.061 179.419C262.803 179.141 256.407 178.932 249.941 178.932C243.406 178.932 236.94 179.071 230.613 179.419C236.87 171.279 243.336 163.835 249.732 157.156ZM198.283 198.134C194.876 203.491 191.469 208.987 188.271 214.623C185.073 220.189 182.083 225.754 179.232 231.32C175.478 221.997 172.28 212.675 169.638 203.63C178.746 201.473 188.34 199.595 198.283 198.134ZM135.361 285.239C110.749 274.733 94.827 260.958 94.827 250.035C94.827 239.112 110.749 225.267 135.361 214.831C141.34 212.257 147.876 209.961 154.62 207.805C158.583 221.441 163.797 235.634 170.263 250.174C163.867 264.645 158.722 278.769 154.829 292.335C147.945 290.178 141.41 287.813 135.361 285.239ZM172.766 384.658C163.311 379.231 159.209 358.568 162.407 331.992C163.172 325.452 164.423 318.564 165.953 311.537C179.58 314.877 194.459 317.451 210.102 319.121C219.488 331.992 229.222 343.68 239.025 353.907C216.36 374.987 195.084 386.536 180.623 386.536C177.494 386.467 174.852 385.841 172.766 384.658ZM337.684 331.644C340.951 358.22 336.919 378.883 327.533 384.38C325.447 385.632 322.735 386.189 319.537 386.189C305.145 386.189 283.801 374.709 261.135 353.768C270.869 343.541 280.602 331.922 289.849 319.051C305.562 317.381 320.441 314.807 334.068 311.398C335.667 318.425 336.919 325.173 337.684 331.644ZM364.451 285.239C358.472 287.813 351.937 290.109 345.193 292.266C341.23 278.629 336.015 264.437 329.549 249.896C335.946 235.425 341.091 221.302 344.984 207.735C351.867 209.892 358.403 212.257 364.521 214.831C389.133 225.337 405.055 239.112 405.055 250.035C404.986 260.958 389.064 274.803 364.451 285.239Z" fill="url(#paint5_linear_112_6)"/>
<path d="M248.565 282.322C266.036 282.322 280.199 268.159 280.199 250.688C280.199 233.217 266.036 219.054 248.565 219.054C231.094 219.054 216.931 233.217 216.931 250.688C216.931 268.159 231.094 282.322 248.565 282.322Z" fill="url(#paint6_linear_112_6)"/>
</g>
<defs>
<filter id="filter0_f_112_6" x="-1" y="8" width="274.94" height="266.688" filterUnits="userSpaceOnUse" color-interpolation-filters="sRGB">
<feFlood flood-opacity="0" result="BackgroundImageFix"/>
<feBlend mode="normal" in="SourceGraphic" in2="BackgroundImageFix" result="shape"/>
<feGaussianBlur stdDeviation="12" result="effect1_foregroundBlur_112_6"/>
</filter>
<filter id="filter1_f_112_6" x="-1" y="217.06" width="274.94" height="274.94" filterUnits="userSpaceOnUse" color-interpolation-filters="sRGB">
<feFlood flood-opacity="0" result="BackgroundImageFix"/>
<feBlend mode="normal" in="SourceGraphic" in2="BackgroundImageFix" result="shape"/>
<feGaussianBlur stdDeviation="12" result="effect1_foregroundBlur_112_6"/>
</filter>
<filter id="filter2_f_112_6" x="225.94" y="217.06" width="274.94" height="274.94" filterUnits="userSpaceOnUse" color-interpolation-filters="sRGB">
<feFlood flood-opacity="0" result="BackgroundImageFix"/>
<feBlend mode="normal" in="SourceGraphic" in2="BackgroundImageFix" result="shape"/>
<feGaussianBlur stdDeviation="12" result="effect1_foregroundBlur_112_6"/>
</filter>
<filter id="filter3_f_112_6" x="225.94" y="8" width="274.94" height="274.94" filterUnits="userSpaceOnUse" color-interpolation-filters="sRGB">
<feFlood flood-opacity="0" result="BackgroundImageFix"/>
<feBlend mode="normal" in="SourceGraphic" in2="BackgroundImageFix" result="shape"/>
<feGaussianBlur stdDeviation="12" result="effect1_foregroundBlur_112_6"/>
</filter>
<filter id="filter4_d_112_6" x="33.6306" y="34.3788" width="434.618" height="434.618" filterUnits="userSpaceOnUse" color-interpolation-filters="sRGB">
<feFlood flood-opacity="0" result="BackgroundImageFix"/>
<feColorMatrix in="SourceAlpha" type="matrix" values="0 0 0 0 0 0 0 0 0 0 0 0 0 0 0 0 0 0 127 0" result="hardAlpha"/>
<feOffset dx="1" dy="1"/>
<feGaussianBlur stdDeviation="5.5"/>
<feComposite in2="hardAlpha" operator="out"/>
<feColorMatrix type="matrix" values="0 0 0 0 1 0 0 0 0 1 0 0 0 0 1 0 0 0 0.414909 0"/>
<feBlend mode="normal" in2="BackgroundImageFix" result="effect1_dropShadow_112_6"/>
<feBlend mode="normal" in="SourceGraphic" in2="effect1_dropShadow_112_6" result="shape"/>
</filter>
<linearGradient id="paint0_linear_112_6" x1="22717" y1="10966.4" x2="23" y2="10966.4" gradientUnits="userSpaceOnUse">
<stop stop-color="#BD6D5E"/>
<stop offset="0.477737" stop-color="#DF9139"/>
<stop offset="1" stop-color="#C9816F"/>
</linearGradient>
<linearGradient id="paint1_linear_112_6" x1="11370" y1="241.06" x2="11370" y2="22935.1" gradientUnits="userSpaceOnUse">
<stop stop-color="#C9816F"/>
<stop offset="1" stop-color="#D2A08E"/>
</linearGradient>
<linearGradient id="paint2_linear_112_6" x1="22944" y1="11588.1" x2="249.94" y2="11588.1" gradientUnits="userSpaceOnUse">
<stop stop-color="#61529C"/>
<stop offset="1" stop-color="#861C77"/>
</linearGradient>
<linearGradient id="paint3_linear_112_6" x1="22944" y1="11379" x2="249.94" y2="11379" gradientUnits="userSpaceOnUse">
<stop stop-color="#1B89C7"/>
<stop offset="0.999891" stop-color="#568697"/>
</linearGradient>
<linearGradient id="paint4_linear_112_6" x1="43.6306" y1="44.3788" x2="41305.5" y2="41306.2" gradientUnits="userSpaceOnUse">
<stop stop-color="#19181D"/>
<stop offset="1"/>
</linearGradient>
<linearGradient id="paint5_linear_112_6" x1="17134.3" y1="98.0192" x2="17134.3" y2="30494.3" gradientUnits="userSpaceOnUse">
<stop stop-color="#9AEFFD"/>
<stop offset="1" stop-color="#61DAFB"/>
</linearGradient>
<linearGradient id="paint6_linear_112_6" x1="3380.34" y1="219.054" x2="3380.34" y2="6545.87" gradientUnits="userSpaceOnUse">
<stop stop-color="#9AEFFD"/>
<stop offset="1" stop-color="#61DAFB"/>
</linearGradient>
<clipPath id="clip0_112_6">
<rect width="500" height="500" fill="white"/>
</clipPath>
</defs>
</svg>
