<svg width="190" height="42" viewBox="0 0 190 42" fill="none" xmlns="http://www.w3.org/2000/svg">
<g clip-path="url(#clip0_114_5)">
<path d="M6.96 32.5V10.1H15.92V14.9H11.728V18.9H14.512V23.7H11.728V32.5H6.96ZM17.21 32.5V10.1H22.106C23.258 10.1 24.314 10.388 25.274 10.964C26.234 11.5187 26.9913 12.276 27.546 13.236C28.122 14.1747 28.41 15.2307 28.41 16.404V20.148C28.41 20.7027 28.2713 21.428 27.994 22.324C27.7167 23.1987 27.194 23.988 26.426 24.692V25.172L28.41 32.5H23.61L22.266 26.324H21.978V32.5H17.21ZM21.978 22.196H22.234C22.618 22.196 22.938 22.0893 23.194 21.876C23.4713 21.6413 23.61 21.0653 23.61 20.148V16.308C23.61 15.412 23.4713 14.8467 23.194 14.612C22.938 14.3773 22.618 14.26 22.234 14.26H21.978V22.196ZM35.31 32.82C34.286 32.82 33.3473 32.5747 32.494 32.084C31.6407 31.572 30.958 30.9 30.446 30.068C29.9553 29.2147 29.71 28.2653 29.71 27.22V15.38C29.71 14.3347 29.9553 13.396 30.446 12.564C30.958 11.7107 31.6407 11.0387 32.494 10.548C33.3473 10.036 34.286 9.78 35.31 9.78C36.334 9.78 37.2727 10.036 38.126 10.548C38.9793 11.0387 39.6513 11.7107 40.142 12.564C40.654 13.396 40.91 14.3347 40.91 15.38V27.22C40.91 28.2653 40.654 29.2147 40.142 30.068C39.6513 30.9 38.9793 31.572 38.126 32.084C37.2727 32.5747 36.334 32.82 35.31 32.82ZM35.31 28.596C35.5447 28.596 35.7367 28.5213 35.886 28.372C36.0353 28.2013 36.11 28.0093 36.11 27.796V14.772C36.11 14.5373 36.0353 14.3453 35.886 14.196C35.7367 14.0253 35.5447 13.94 35.31 13.94C35.0753 13.94 34.8727 14.0253 34.702 14.196C34.5527 14.3453 34.478 14.5373 34.478 14.772V27.796C34.478 28.0093 34.5527 28.2013 34.702 28.372C34.8727 28.5213 35.0753 28.596 35.31 28.596ZM42.5538 32.5V10.1H46.3938L49.1138 18.9H49.5938V10.1H53.7538V32.5H49.9138L47.1938 23.7H46.7138V32.5H42.5538ZM58.0938 32.5V14.26H55.0538V10.1H65.9338V14.26H62.8938V32.5H58.0938ZM67.2413 32.5V10.1H76.2013V14.26H72.0093V18.9H74.7933V23.7H72.0093V28.372H76.2013V32.5H67.2413ZM77.4913 32.5V10.1H81.3313L84.0513 18.9H84.5312V10.1H88.6913V32.5H84.8513L82.1313 23.7H81.6513V32.5H77.4913ZM90.6163 32.5V10.1H96.2163C97.2616 10.1 98.2003 10.356 99.0323 10.868C99.8856 11.3587 100.558 12.0307 101.048 12.884C101.56 13.716 101.816 14.6547 101.816 15.7V26.9C101.816 27.9453 101.56 28.8947 101.048 29.748C100.558 30.58 99.8856 31.252 99.0323 31.764C98.2003 32.2547 97.2616 32.5 96.2163 32.5H90.6163ZM95.3843 28.372H96.2803C96.4936 28.372 96.6643 28.2973 96.7923 28.148C96.9416 27.9987 97.0163 27.828 97.0163 27.636V14.996C97.0163 14.804 96.9416 14.6333 96.7923 14.484C96.6643 14.3347 96.4936 14.26 96.2803 14.26H95.3843V28.372Z" fill="#9333EA"/>
<path d="M110.212 29.654C109.845 29.654 109.508 29.6027 109.2 29.5V13.616H114.458C115.441 13.616 116.35 13.77 117.186 14.078C118.037 14.3713 118.719 14.8553 119.232 15.53C119.76 16.2047 120.024 17.092 120.024 18.192C120.024 19.0427 119.855 19.776 119.518 20.392C119.181 20.9933 118.748 21.492 118.22 21.888C117.692 22.2693 117.127 22.57 116.526 22.79L120.464 28.312C120.347 28.62 120.134 28.8987 119.826 29.148C119.533 29.3973 119.21 29.5587 118.858 29.632L114.326 23.274C114.165 23.2887 114.011 23.296 113.864 23.296H111.246V29.5C110.894 29.6027 110.549 29.654 110.212 29.654ZM114.634 15.508H111.246V21.404H113.864C114.319 21.404 114.781 21.36 115.25 21.272C115.734 21.1693 116.174 21.008 116.57 20.788C116.966 20.5533 117.289 20.2307 117.538 19.82C117.787 19.4093 117.912 18.8887 117.912 18.258C117.912 17.3633 117.604 16.6813 116.988 16.212C116.372 15.7427 115.587 15.508 114.634 15.508ZM121.518 27.96C121.885 27.8427 122.34 27.674 122.882 27.454C123.425 27.2193 123.938 26.9773 124.422 26.728C123.938 25.7893 123.696 24.704 123.696 23.472C123.696 22.5627 123.865 21.7633 124.202 21.074C124.54 20.37 125.009 19.82 125.61 19.424C126.212 19.0133 126.894 18.808 127.656 18.808C128.302 18.808 128.874 18.962 129.372 19.27C129.871 19.5633 130.26 19.974 130.538 20.502C130.817 21.03 130.956 21.6387 130.956 22.328C130.898 24.088 129.651 25.7527 127.216 27.322C127.7 27.7327 128.375 27.938 129.24 27.938C129.446 27.938 129.607 28.026 129.724 28.202C129.842 28.378 129.9 28.6127 129.9 28.906C129.9 29.1847 129.834 29.4047 129.702 29.566C129.57 29.7273 129.38 29.808 129.13 29.808C128.368 29.808 127.656 29.676 126.996 29.412C126.351 29.1333 125.83 28.752 125.434 28.268C124.892 28.5467 124.312 28.818 123.696 29.082C123.095 29.3313 122.582 29.522 122.156 29.654C121.922 29.4487 121.753 29.2067 121.65 28.928C121.533 28.6493 121.489 28.3267 121.518 27.96ZM125.61 23.296C125.61 24.3373 125.779 25.2027 126.116 25.892C127.128 25.2173 127.862 24.616 128.316 24.088C128.771 23.5453 129.013 22.9587 129.042 22.328C129.042 21.8 128.91 21.3893 128.646 21.096C128.397 20.788 128.045 20.634 127.59 20.634C127.018 20.634 126.542 20.8907 126.16 21.404C125.794 21.9173 125.61 22.548 125.61 23.296ZM129.139 29.808C128.933 29.808 128.772 29.72 128.655 29.544C128.523 29.368 128.457 29.1407 128.457 28.862C128.457 28.5687 128.53 28.3413 128.677 28.18C128.823 28.0187 129.014 27.938 129.249 27.938C130.173 27.938 131.016 27.6813 131.779 27.168C132.541 26.6547 133.157 25.958 133.627 25.078C133.597 24.8433 133.583 24.6013 133.583 24.352C133.583 23.2667 133.788 22.3133 134.199 21.492C134.609 20.656 135.174 20.0033 135.893 19.534C136.626 19.05 137.462 18.808 138.401 18.808C139.105 18.808 139.743 18.9473 140.315 19.226C140.901 19.49 141.378 19.8787 141.745 20.392C141.569 20.9933 141.143 21.426 140.469 21.69C139.985 21.03 139.317 20.7 138.467 20.7C137.616 20.7 136.927 21.0227 136.399 21.668C135.885 22.2987 135.629 23.1567 135.629 24.242C135.629 25.3567 135.951 26.2513 136.597 26.926C137.257 27.6007 138.188 27.938 139.391 27.938C139.581 27.938 139.735 28.0333 139.853 28.224C139.985 28.4 140.051 28.6273 140.051 28.906C140.051 29.1847 139.977 29.4047 139.831 29.566C139.699 29.7273 139.508 29.808 139.259 29.808C138.144 29.808 137.161 29.5953 136.311 29.17C135.475 28.73 134.822 28.1213 134.353 27.344C133.737 28.136 132.981 28.7447 132.087 29.17C131.192 29.5953 130.209 29.808 129.139 29.808ZM139.323 29.808C139.103 29.808 138.935 29.72 138.817 29.544C138.685 29.368 138.619 29.1407 138.619 28.862C138.619 28.5687 138.693 28.3413 138.839 28.18C138.986 28.0187 139.177 27.938 139.411 27.938C140.453 27.938 141.377 27.6447 142.183 27.058C143.005 26.4567 143.65 25.6353 144.119 24.594C144.589 23.5527 144.823 22.3647 144.823 21.03V19.116C144.955 19.072 145.109 19.0353 145.285 19.006C145.461 18.9767 145.645 18.962 145.835 18.962C146.173 18.962 146.503 19.0133 146.825 19.116V25.452C146.825 26.2293 146.943 26.838 147.177 27.278C147.427 27.7033 147.837 27.916 148.409 27.916C148.659 27.916 148.827 28.0187 148.915 28.224C149.003 28.4293 149.047 28.6493 149.047 28.884C149.047 29.1187 148.981 29.3313 148.849 29.522C148.732 29.7127 148.534 29.808 148.255 29.808C146.437 29.808 145.381 28.7813 145.087 26.728C144.442 27.696 143.621 28.4513 142.623 28.994C141.641 29.5367 140.541 29.808 139.323 29.808ZM145.857 15.948C145.447 15.948 145.095 15.8013 144.801 15.508C144.508 15.2147 144.361 14.8627 144.361 14.452C144.361 14.012 144.501 13.6527 144.779 13.374C145.073 13.0953 145.432 12.956 145.857 12.956C146.297 12.956 146.657 13.0953 146.935 13.374C147.214 13.6527 147.353 14.012 147.353 14.452C147.353 14.8773 147.207 15.2367 146.913 15.53C146.635 15.8087 146.283 15.948 145.857 15.948ZM148.312 29.808C148.077 29.808 147.901 29.7053 147.784 29.5C147.667 29.3093 147.608 29.0967 147.608 28.862C147.608 28.6127 147.674 28.3927 147.806 28.202C147.938 28.0113 148.151 27.916 148.444 27.916C148.943 27.916 149.397 27.696 149.808 27.256C150.233 26.8013 150.615 26.222 150.952 25.518C151.304 24.814 151.619 24.066 151.898 23.274C152.133 22.5993 152.389 21.8953 152.668 21.162C152.947 20.4287 153.181 19.71 153.372 19.006C153.665 18.9327 154.01 18.9033 154.406 18.918C154.802 18.9327 155.132 18.9987 155.396 19.116L155.528 20.634C156.32 19.4167 157.376 18.808 158.696 18.808C159.781 18.808 160.639 19.1893 161.27 19.952C161.901 20.7 162.216 21.7413 162.216 23.076V25.65C162.216 26.4567 162.319 27.036 162.524 27.388C162.744 27.74 163.089 27.916 163.558 27.916C163.763 27.916 163.917 28.004 164.02 28.18C164.137 28.356 164.196 28.5907 164.196 28.884C164.196 29.1187 164.13 29.3313 163.998 29.522C163.881 29.7127 163.683 29.808 163.404 29.808C161.277 29.808 160.214 28.5027 160.214 25.892V23.076C160.214 21.492 159.635 20.7 158.476 20.7C157.963 20.7 157.493 20.898 157.068 21.294C156.643 21.69 156.305 22.218 156.056 22.878C155.821 23.5233 155.704 24.2493 155.704 25.056V37.596C155.557 37.64 155.396 37.6767 155.22 37.706C155.044 37.7353 154.875 37.75 154.714 37.75C154.362 37.75 154.025 37.6987 153.702 37.596V23.626L153.614 23.868C153.203 25.0413 152.763 26.0753 152.294 26.97C151.839 27.8647 151.297 28.5613 150.666 29.06C150.035 29.5587 149.251 29.808 148.312 29.808ZM163.414 29.808C163.223 29.808 163.069 29.72 162.952 29.544C162.835 29.368 162.776 29.1407 162.776 28.862C162.776 28.2313 163.04 27.916 163.568 27.916C163.993 27.916 164.426 27.85 164.866 27.718C165.306 27.5713 165.819 27.3293 166.406 26.992C165.834 25.9947 165.548 24.8213 165.548 23.472C165.548 22.5627 165.717 21.7633 166.054 21.074C166.391 20.37 166.861 19.82 167.462 19.424C168.063 19.0133 168.745 18.808 169.508 18.808C170.153 18.808 170.725 18.962 171.224 19.27C171.723 19.5633 172.111 19.974 172.39 20.502C172.669 21.03 172.808 21.6387 172.808 22.328C172.808 23.2667 172.529 24.1247 171.972 24.902C171.429 25.6793 170.505 26.5227 169.2 27.432C169.669 27.7693 170.3 27.938 171.092 27.938C171.297 27.938 171.459 28.026 171.576 28.202C171.693 28.378 171.752 28.6127 171.752 28.906C171.752 29.1847 171.686 29.4047 171.554 29.566C171.422 29.7273 171.231 29.808 170.982 29.808C170.278 29.808 169.618 29.6907 169.002 29.456C168.386 29.2213 167.873 28.8987 167.462 28.488C166.054 29.368 164.705 29.808 163.414 29.808ZM167.462 23.296C167.462 24.4547 167.667 25.3787 168.078 26.068C169.031 25.408 169.735 24.7627 170.19 24.132C170.659 23.5013 170.894 22.9 170.894 22.328C170.894 21.8 170.762 21.3893 170.498 21.096C170.249 20.788 169.897 20.634 169.442 20.634C168.87 20.634 168.393 20.8907 168.012 21.404C167.645 21.9173 167.462 22.548 167.462 23.296ZM170.968 29.808C170.778 29.808 170.624 29.72 170.506 29.544C170.389 29.368 170.33 29.1407 170.33 28.862C170.33 28.5687 170.411 28.3413 170.572 28.18C170.719 28.0187 170.91 27.938 171.144 27.938C171.848 27.938 172.464 27.7693 172.992 27.432C173.506 27.08 173.96 26.64 174.356 26.112C174.752 25.5693 175.097 25.0267 175.39 24.484L177.458 20.634C177.37 20.3113 177.326 19.9667 177.326 19.6C177.326 18.8667 177.458 18.324 177.722 17.972C178.001 17.62 178.228 17.4073 178.404 17.334C178.654 17.2753 178.918 17.2827 179.196 17.356C179.49 17.4147 179.754 17.5173 179.988 17.664C180.223 17.8107 180.384 17.9867 180.472 18.192C180.428 18.456 180.326 18.808 180.164 19.248C180.003 19.688 179.783 20.2087 179.504 20.81C179.607 20.942 179.724 21.074 179.856 21.206C180.003 21.338 180.172 21.4773 180.362 21.624L182.034 22.988C182.636 23.472 183.083 23.978 183.376 24.506C183.684 25.0193 183.838 25.5987 183.838 26.244C183.838 26.9187 183.67 27.5273 183.332 28.07C182.995 28.6127 182.526 29.038 181.924 29.346C181.323 29.654 180.626 29.808 179.834 29.808C179.321 29.808 178.808 29.7273 178.294 29.566C177.781 29.4193 177.246 29.1773 176.688 28.84C176.659 28.0627 176.952 27.4907 177.568 27.124C178.375 27.652 179.138 27.916 179.856 27.916C180.472 27.916 180.964 27.7547 181.33 27.432C181.697 27.0947 181.88 26.6693 181.88 26.156C181.88 25.5107 181.528 24.9093 180.824 24.352L179.152 23.032C178.947 22.8707 178.764 22.7093 178.602 22.548C178.558 22.6213 178.514 22.702 178.47 22.79L176.688 26.024C176.307 26.7133 175.86 27.3513 175.346 27.938C174.833 28.51 174.217 28.9647 173.498 29.302C172.794 29.6393 171.951 29.808 170.968 29.808Z" fill="#9333EA"/>
</g>
<defs>
<clipPath id="clip0_114_5">
<rect width="190" height="42" fill="white"/>
</clipPath>
</defs>
</svg>
